<svg xmlns="http://www.w3.org/2000/svg" viewBox="0 0 28.581 22.719">
  <defs>
    <style>
      .cls-1 {
        fill: #234096;
      }
    </style>
  </defs>
  <g id="collapse" transform="translate(5.385 22.719) rotate(-120)">
    <path id="Path_796" data-name="Path 796" class="cls-1" d="M10.747,6.124,9.114,4.492a.106.106,0,0,0-.139,0L6.637,6.831V.1a.1.1,0,0,0-.1-.1h-2.3a.1.1,0,0,0-.1.1V6.831L1.786,4.492a.106.106,0,0,0-.139,0L.026,6.124a.106.106,0,0,0,0,.139l5.279,5.279c.023.023.046.035.069.023a.124.124,0,0,0,.069-.023l5.279-5.279C10.782,6.217,10.782,6.159,10.747,6.124Z" transform="translate(10.77 26.784) rotate(180)"/>
    <path id="Path_797" data-name="Path 797" class="cls-1" d="M10.747,6.124,9.114,4.492a.106.106,0,0,0-.139,0L6.637,6.831V.1a.1.1,0,0,0-.1-.1h-2.3a.1.1,0,0,0-.1.1V6.831L1.786,4.492a.106.106,0,0,0-.139,0L.026,6.124a.106.106,0,0,0,0,.139l5.279,5.279c.023.023.046.035.069.023a.124.124,0,0,0,.069-.023l5.279-5.279C10.782,6.217,10.782,6.159,10.747,6.124Z" transform="translate(0 0)"/>
  </g>
</svg>
